<svg xmlns="http://www.w3.org/2000/svg" x="0px" y="0px" viewBox="0 0 512.034 512.034" style="enable-background:new 0 0 512.034 512.034"><path d="M362.684 192.034H149.35c-5.888 0-10.667 4.779-10.667 10.667v170.667c0 25.771 18.347 47.296 42.667 52.267v54.4c0 17.643 14.357 32 32 32 17.643 0 32-14.357 32-32v-53.333h21.333v53.333c0 17.643 14.357 32 32 32s32-14.357 32-32v-54.4c24.32-4.949 42.667-26.496 42.667-52.267V202.701C373.35 196.792 368.572 192.034 362.684 192.034zM311.846 56.845l17.984-41.963c2.325-5.419-.192-11.669-5.611-13.995-5.355-2.347-11.691.171-13.995 5.611l-17.984 41.984c-11.413-3.712-23.573-5.781-36.203-5.781-12.629 0-24.789 2.069-36.203 5.781L201.809 6.498c-2.304-5.44-8.64-7.979-13.995-5.611-5.419 2.325-7.915 8.597-5.589 13.995l17.984 41.963c-36.629 19.883-61.525 58.688-61.525 103.189 0 5.888 4.779 10.667 10.667 10.667h213.333c5.888 0 10.667-4.779 10.667-10.667C373.35 115.533 348.454 76.728 311.846 56.845zM213.35 128.034c-5.888 0-10.667-4.779-10.667-10.667s4.779-10.667 10.667-10.667 10.667 4.779 10.667 10.667S219.238 128.034 213.35 128.034zM298.684 128.034c-5.888 0-10.667-4.779-10.667-10.667s4.779-10.667 10.667-10.667 10.667 4.779 10.667 10.667S304.572 128.034 298.684 128.034zM426.684 192.034c-17.643 0-32 14.357-32 32v106.667c0 17.643 14.357 32 32 32 17.643 0 32-14.357 32-32V224.034C458.684 206.392 444.327 192.034 426.684 192.034zM85.35 192.034c-17.643 0-32 14.357-32 32v106.667c0 17.643 14.357 32 32 32 17.643 0 32-14.357 32-32V224.034C117.35 206.392 102.993 192.034 85.35 192.034z" /></svg>